<svg xmlns="http://www.w3.org/2000/svg" width="126" height="40" fill="none"><path fill="#fff" d="m2.722 21.087-1.435.212L3.292 34.82l1.435-.212-2.005-13.522ZM13.126 23.327 3.518 7.85l-.798 8.282-1.45-.145L2.285 5.57a.738.738 0 0 1 .544-.651c.29-.072.616.072.797.325L14.36 22.568l-1.233.76ZM23.28 38.407a.716.716 0 0 1-.653-.434l-5.33-11.68 1.305-.615 4.533 9.909 4.568-15.623 1.378.398-5.112 17.503a.664.664 0 0 1-.653.506c0 .036 0 .036-.036.036ZM20.79 4.295l-1.45.023.266 17.067 1.45-.022-.266-17.068ZM45.18 33.561l-3.988-9.728-7.07-16.165-2.249 8.318-1.414-.362 2.792-10.306a.74.74 0 0 1 .653-.543c.326-.036.58.145.725.434l7.868 18.082 4.025 9.728-1.342.542ZM69.039 38.588l-21.575-13.85a.71.71 0 0 1-.326-.615c0-.254.145-.47.363-.615l12.437-7.233L61.062 5.86 52.65 3.256l-11.458-.47 5.692 16.201-1.378.47-6.019-17.213a.7.7 0 0 1 .11-.651.775.775 0 0 1 .616-.29l12.581.507c.073 0 .11 0 .182.036L62.04 4.63c.326.108.544.433.507.759l-1.233 11.355c-.036.217-.145.434-.362.543L49.24 24.123l20.595 13.2-.797 1.265Z"/><path fill="#fff" d="m62.656 28.21-1.16-.869 4.859-6.4L70.96 5.317c.072-.29.326-.47.616-.507.29-.036.58.109.725.398l7.107 13.453-1.269.687-6.236-11.862-4.134 14.032c-.036.072-.073.18-.109.217l-5.004 6.473ZM81.117 23.674l-1.402.37 3.222 12.13 1.402-.37-3.222-12.13ZM92.541 21.291 91.475 36.08l1.446.104 1.067-14.789-1.447-.104ZM91.265 16.962h-1.45V3.907h-9.5V2.461H90.54c.398 0 .725.325.725.723v13.778Z"/><path fill="#fff" d="m115.969 1.88-25.483.583.034 1.446 25.482-.584-.033-1.446ZM99.538 9.41l-1.429.25 4.604 26.326 1.429-.249-4.604-26.326ZM114.687 37.07h-.072a.74.74 0 0 1-.653-.543l-7.034-28.208 1.414-.361 6.49 26.11 6.201-14.285 1.341.579-7.034 16.237a.697.697 0 0 1-.653.47ZM123.275 6.05l-1.265 8.915 1.436.203 1.265-8.916-1.436-.202ZM1.994 18.047c1.102 0 1.995-.89 1.995-1.989a1.992 1.992 0 0 0-1.995-1.989C.893 14.07 0 14.96 0 16.06c0 1.098.893 1.988 1.994 1.988Z"/><path fill="#FFCB0C" d="M3.01 7.632c1.101 0 1.994-.89 1.994-1.989A1.992 1.992 0 0 0 3.01 3.654c-1.102 0-1.994.89-1.994 1.989 0 1.099.892 1.989 1.994 1.989Z"/><path fill="#fff" d="M13.742 24.954c1.102 0 1.995-.89 1.995-1.989a1.992 1.992 0 0 0-1.995-1.989c-1.101 0-1.994.89-1.994 1.99 0 1.098.893 1.988 1.994 1.988ZM17.947 27.956c1.102 0 1.995-.89 1.995-1.989a1.992 1.992 0 0 0-1.995-1.989c-1.101 0-1.994.89-1.994 1.989 0 1.099.893 1.989 1.994 1.989ZM20.342 23.363c1.101 0 1.994-.89 1.994-1.989a1.992 1.992 0 0 0-1.994-1.989c-1.101 0-1.994.89-1.994 1.99 0 1.098.893 1.988 1.994 1.988Z"/><path fill="#FFCB0C" d="M23.277 39.673c1.102 0 1.995-.89 1.995-1.99a1.992 1.992 0 0 0-1.994-1.988c-1.102 0-1.995.89-1.995 1.989 0 1.098.893 1.989 1.994 1.989Z"/><path fill="#fff" d="M28.39 22.134c1.102 0 1.995-.89 1.995-1.99a1.992 1.992 0 0 0-1.994-1.988c-1.102 0-1.994.89-1.994 1.989 0 1.098.892 1.989 1.994 1.989ZM20.05 6.294c1.102 0 1.995-.89 1.995-1.989a1.992 1.992 0 0 0-1.994-1.989c-1.101 0-1.994.89-1.994 1.989 0 1.099.893 1.989 1.994 1.989Z"/><path fill="#FFCB0C" d="M31.184 17.794c1.101 0 1.994-.89 1.994-1.989a1.992 1.992 0 0 0-1.994-1.989c-1.102 0-1.995.89-1.995 1.989 0 1.099.893 1.989 1.995 1.989Z"/><path fill="#fff" d="M33.975 7.487c1.101 0 1.994-.89 1.994-1.989a1.992 1.992 0 0 0-1.994-1.989c-1.102 0-1.995.89-1.995 1.99 0 1.098.893 1.988 1.995 1.988ZM41.844 25.57c1.101 0 1.994-.891 1.994-1.99a1.992 1.992 0 0 0-1.994-1.989c-1.102 0-1.994.89-1.994 1.99 0 1.098.892 1.988 1.994 1.988ZM45.867 35.26c1.102 0 1.995-.89 1.995-1.988a1.992 1.992 0 0 0-1.995-1.989c-1.101 0-1.994.89-1.994 1.989 0 1.098.893 1.989 1.994 1.989ZM47.826 26.112c1.102 0 1.995-.89 1.995-1.99a1.992 1.992 0 0 0-1.995-1.988c-1.101 0-1.994.89-1.994 1.989 0 1.098.893 1.989 1.994 1.989ZM46.194 21.23c1.1 0 1.994-.89 1.994-1.99a1.992 1.992 0 0 0-1.995-1.988c-1.1 0-1.994.89-1.994 1.989 0 1.098.893 1.989 1.995 1.989ZM40.176 4.016c1.101 0 1.994-.89 1.994-1.99A1.992 1.992 0 0 0 40.176.039c-1.102 0-1.994.89-1.994 1.989 0 1.098.892 1.989 1.994 1.989ZM52.72 4.522c1.102 0 1.995-.89 1.995-1.989A1.992 1.992 0 0 0 52.721.544c-1.102 0-1.994.89-1.994 1.99 0 1.098.892 1.988 1.994 1.988ZM61.785 7.307c1.102 0 1.995-.89 1.995-1.99a1.992 1.992 0 0 0-1.995-1.988c-1.101 0-1.994.89-1.994 1.989 0 1.098.893 1.989 1.994 1.989Z"/><path fill="#FFCB0C" d="M60.59 18.698c1.101 0 1.994-.89 1.994-1.989a1.992 1.992 0 0 0-1.994-1.989c-1.101 0-1.994.89-1.994 1.99 0 1.098.893 1.988 1.994 1.988Z"/><path fill="#fff" d="M69.4 39.962c1.102 0 1.995-.89 1.995-1.989a1.992 1.992 0 0 0-1.995-1.989c-1.1 0-1.994.89-1.994 1.99 0 1.098.893 1.988 1.994 1.988ZM62.076 29.764c1.102 0 1.994-.89 1.994-1.989a1.992 1.992 0 0 0-1.994-1.989c-1.101 0-1.994.89-1.994 1.99 0 1.098.893 1.988 1.994 1.988ZM67.043 23.29c1.101 0 1.994-.89 1.994-1.988a1.992 1.992 0 0 0-1.994-1.99c-1.101 0-1.994.891-1.994 1.99 0 1.098.893 1.989 1.994 1.989ZM71.648 7.524c1.102 0 1.995-.891 1.995-1.99a1.992 1.992 0 0 0-1.995-1.988c-1.1 0-1.994.89-1.994 1.989 0 1.098.893 1.989 1.995 1.989ZM78.754 20.976c1.101 0 1.994-.89 1.994-1.989a1.992 1.992 0 0 0-1.994-1.989c-1.101 0-1.994.89-1.994 1.99 0 1.098.893 1.988 1.994 1.988ZM80.387 25.858c1.101 0 1.994-.89 1.994-1.989a1.992 1.992 0 0 0-1.994-1.988c-1.102 0-1.994.89-1.994 1.988 0 1.099.892 1.99 1.994 1.99ZM83.613 37.973c1.102 0 1.995-.89 1.995-1.989a1.992 1.992 0 0 0-1.995-1.989c-1.101 0-1.994.89-1.994 1.99 0 1.098.893 1.988 1.994 1.988ZM92.17 38.118c1.101 0 1.994-.89 1.994-1.99a1.992 1.992 0 0 0-1.994-1.988c-1.101 0-1.994.89-1.994 1.989 0 1.098.893 1.989 1.994 1.989ZM93.258 23.327c1.101 0 1.994-.89 1.994-1.989a1.992 1.992 0 0 0-1.994-1.989c-1.102 0-1.994.89-1.994 1.989 0 1.098.892 1.989 1.994 1.989ZM90.54 18.951c1.1 0 1.993-.89 1.993-1.989a1.992 1.992 0 0 0-1.994-1.989c-1.101 0-1.994.89-1.994 1.99 0 1.098.893 1.988 1.994 1.988ZM80.315 5.173c1.101 0 1.994-.89 1.994-1.99a1.992 1.992 0 0 0-1.994-1.988c-1.102 0-1.995.89-1.995 1.989 0 1.098.893 1.989 1.995 1.989Z"/><path fill="#FFCB0C" d="M90.54 5.173c1.1 0 1.993-.89 1.993-1.99a1.992 1.992 0 0 0-1.994-1.988c-1.101 0-1.994.89-1.994 1.989 0 1.098.893 1.989 1.994 1.989Z"/><path fill="#fff" d="M115.992 4.594c1.102 0 1.995-.89 1.995-1.989a1.992 1.992 0 0 0-1.995-1.989c-1.101 0-1.994.89-1.994 1.99 0 1.098.893 1.988 1.994 1.988ZM98.842 11.502c1.101 0 1.994-.891 1.994-1.99a1.991 1.991 0 0 0-1.994-1.988c-1.102 0-1.994.89-1.994 1.989 0 1.098.892 1.989 1.994 1.989ZM107.652 10.127c1.102 0 1.995-.89 1.995-1.989a1.992 1.992 0 0 0-1.995-1.989c-1.101 0-1.994.89-1.994 1.99 0 1.098.893 1.988 1.994 1.988ZM124.006 8.138c1.101 0 1.994-.89 1.994-1.989a1.992 1.992 0 0 0-1.994-1.989c-1.101 0-1.994.89-1.994 1.99 0 1.098.893 1.988 1.994 1.988ZM122.736 17.035c1.102 0 1.995-.89 1.995-1.99a1.992 1.992 0 0 0-1.995-1.988c-1.101 0-1.994.89-1.994 1.989 0 1.098.893 1.989 1.994 1.989Z"/><path fill="#FFCB0C" d="M121.723 22.098c1.101 0 1.994-.891 1.994-1.99a1.992 1.992 0 0 0-1.994-1.989c-1.102 0-1.994.891-1.994 1.99 0 1.098.892 1.988 1.994 1.988Z"/><path fill="#fff" d="M114.688 38.335c1.101 0 1.994-.89 1.994-1.99a1.992 1.992 0 0 0-1.994-1.988c-1.102 0-1.995.89-1.995 1.989 0 1.098.893 1.989 1.995 1.989Z"/><path fill="#FFCB0C" d="M103.447 37.829c1.102 0 1.995-.89 1.995-1.99a1.992 1.992 0 0 0-1.995-1.988c-1.101 0-1.994.89-1.994 1.989 0 1.098.893 1.989 1.994 1.989Z"/><path fill="#A4CD39" d="M34.446 27.377a3.223 3.223 0 0 0 3.227-3.218 3.223 3.223 0 0 0-3.227-3.219 3.223 3.223 0 0 0-3.227 3.219 3.223 3.223 0 0 0 3.227 3.218Z"/><path fill="#fff" d="M1.994 23.182c1.102 0 1.995-.89 1.995-1.989a1.992 1.992 0 0 0-1.995-1.989c-1.101 0-1.994.89-1.994 1.99 0 1.098.893 1.988 1.994 1.988ZM4.026 36.744c1.1 0 1.994-.89 1.994-1.99a1.992 1.992 0 0 0-1.994-1.988c-1.102 0-1.995.89-1.995 1.989 0 1.098.893 1.989 1.994 1.989Z"/><path fill="#A4CD39" d="M73.063 27.63a3.223 3.223 0 0 0 3.227-3.218 3.223 3.223 0 0 0-3.227-3.219 3.223 3.223 0 0 0-3.227 3.219 3.223 3.223 0 0 0 3.227 3.219Z"/></svg>