<svg xmlns="http://www.w3.org/2000/svg" width="126" height="40" fill="none"><g clip-path="url(#a)"><path fill="#231F20" d="m2.724 21.1-1.435.211 2.005 13.545 1.435-.212-2.005-13.545ZM13.117 23.331 3.527 7.825l-.8 8.286-1.444-.138L2.291 5.544a.728.728 0 0 1 .558-.637c.301-.07.617.061.78.326l10.725 17.334-1.233.76-.004.004ZM23.292 38.41a.724.724 0 0 1-.66-.423l-5.337-11.711 1.32-.602 4.525 9.934 4.557-15.655 1.392.406-5.105 17.53c-.083.29-.34.5-.645.521h-.05.003ZM20.78 4.278l-1.45.022.266 17.094 1.45-.023-.266-17.093ZM45.179 33.558l-4.01-9.72-7.052-16.186-2.24 8.332-1.4-.377 2.78-10.33a.723.723 0 0 1 1.363-.101l7.887 18.098 4.017 9.73-1.342.55-.003.004ZM69.014 38.606 47.438 24.733a.72.72 0 0 1 .025-1.231l12.422-7.25 1.113-10.43-8.393-2.592-11.414-.456 5.674 16.241-1.37.478-6.023-17.251a.727.727 0 0 1 .715-.964l12.573.504a.64.64 0 0 1 .185.032L62 4.614c.33.1.543.423.507.767l-1.218 11.385a.723.723 0 0 1-.355.547l-11.718 6.84L69.797 37.39l-.786 1.217h.003Z"/><path fill="#231F20" d="m62.655 28.22-1.153-.876 4.87-6.395 4.586-15.655a.727.727 0 0 1 1.338-.134l7.088 13.468-1.284.673-6.254-11.885-4.122 14.065a.759.759 0 0 1-.12.235l-4.953 6.504h.004ZM81.09 23.663l-1.403.371 3.222 12.143 1.402-.37-3.222-12.144ZM92.508 21.285 91.445 36.09l1.447.104 1.063-14.806-1.447-.103ZM91.236 16.954h-1.45V3.878H80.3V2.43h10.21c.399 0 .725.326.725.724v13.8Z"/><path fill="#231F20" d="m115.967 1.856-25.47.581.032 1.449L116 3.304l-.033-1.448ZM99.534 9.373l-1.428.249 4.603 26.344 1.429-.249-4.604-26.344ZM114.666 37.085h-.062a.726.726 0 0 1-.645-.547l-7.02-28.227 1.407-.348 6.501 26.145 6.182-14.293 1.331.576-7.034 16.263a.723.723 0 0 1-.664.438l.004-.007ZM123.262 6.025 122 14.94l1.436.203 1.262-8.914-1.436-.203ZM2.005 18.041a2.004 2.004 0 1 0 0-4.005 2.004 2.004 0 1 0 0 4.005Z"/><path fill="#FFCB0C" d="M3.013 7.615a2.004 2.004 0 1 0-2.005-2.002c0 1.106.897 2.002 2.005 2.002Z"/><path fill="#231F20" d="M13.733 24.954a2.004 2.004 0 1 0 0-4.005 2.004 2.004 0 0 0-2.005 2.002c0 1.106.898 2.003 2.005 2.003ZM17.954 27.978a2.004 2.004 0 1 0 0-4.006 2.004 2.004 0 0 0-2.005 2.003c0 1.106.898 2.003 2.005 2.003ZM20.325 23.386a2.004 2.004 0 1 0 0-4.005 2.004 2.004 0 0 0-2.005 2.002c0 1.106.898 2.003 2.005 2.003Z"/><path fill="#FFCB0C" d="M23.292 39.688a2.004 2.004 0 1 0 0-4.005 2.004 2.004 0 1 0 0 4.005Z"/><path fill="#231F20" d="M28.396 22.158a2.004 2.004 0 1 0-2.005-2.002c0 1.106.897 2.002 2.005 2.002ZM20.058 6.29a2.004 2.004 0 1 0 0-4.005 2.004 2.004 0 1 0 0 4.005Z"/><path fill="#FFCB0C" d="M31.177 17.798a2.004 2.004 0 0 0 2.005-2.002 2.004 2.004 0 0 0-2.005-2.003 2.004 2.004 0 1 0 0 4.005Z"/><path fill="#231F20" d="M33.954 7.467a2.004 2.004 0 1 0 0-4.005 2.004 2.004 0 1 0 0 4.005ZM41.84 25.566a2.004 2.004 0 0 0 2.006-2.003 2.004 2.004 0 0 0-2.005-2.002 2.004 2.004 0 0 0-2.005 2.002c0 1.106.898 2.003 2.005 2.003ZM45.85 35.282a2.004 2.004 0 0 0 2.006-2.003 2.004 2.004 0 0 0-2.005-2.003 2.004 2.004 0 0 0-2.005 2.003c0 1.106.897 2.003 2.005 2.003ZM47.83 26.127a2.004 2.004 0 1 0 0-4.005 2.004 2.004 0 1 0 0 4.005ZM46.185 21.25a2.004 2.004 0 1 0 0-4.006 2.004 2.004 0 1 0 0 4.005ZM40.157 4.005a2.004 2.004 0 0 0 2.005-2.002A2.004 2.004 0 0 0 40.157 0a2.004 2.004 0 0 0-2.005 2.003c0 1.105.898 2.002 2.005 2.002ZM52.728 4.508a2.004 2.004 0 1 0 0-4.005 2.004 2.004 0 1 0 0 4.005ZM61.786 7.304a2.004 2.004 0 0 0 2.005-2.003A2.004 2.004 0 0 0 61.786 3.3a2.004 2.004 0 0 0-2.005 2.002c0 1.106.898 2.003 2.005 2.003Z"/><path fill="#FFCB0C" d="M60.568 18.693a2.004 2.004 0 0 0 2.005-2.003 2.004 2.004 0 0 0-2.005-2.002 2.004 2.004 0 0 0-2.005 2.002c0 1.106.897 2.003 2.005 2.003Z"/><path fill="#231F20" d="M69.407 40a2.004 2.004 0 1 0 0-4.005 2.004 2.004 0 0 0-2.005 2.002c0 1.106.898 2.003 2.005 2.003ZM62.08 29.785a2.004 2.004 0 1 0 0-4.006 2.004 2.004 0 0 0-2.006 2.003c0 1.106.898 2.003 2.005 2.003ZM67.028 23.285a2.004 2.004 0 0 0 2.005-2.003 2.004 2.004 0 0 0-2.005-2.003 2.004 2.004 0 0 0-2.005 2.003c0 1.106.898 2.003 2.005 2.003ZM71.655 7.5a2.004 2.004 0 1 0 0-4.005 2.004 2.004 0 1 0 0 4.005ZM78.743 20.97a2.004 2.004 0 1 0 0-4.005 2.004 2.004 0 1 0 0 4.006ZM80.39 25.852a2.004 2.004 0 0 0 2.005-2.003 2.004 2.004 0 0 0-2.005-2.002 2.004 2.004 0 1 0 0 4.005ZM83.609 37.998a2.004 2.004 0 1 0 0-4.006 2.004 2.004 0 0 0-2.005 2.003c0 1.106.897 2.003 2.005 2.003ZM92.177 38.146a2.004 2.004 0 1 0 0-4.005 2.004 2.004 0 1 0 0 4.005ZM93.237 23.339a2.004 2.004 0 1 0 0-4.005 2.004 2.004 0 0 0-2.005 2.002c0 1.106.898 2.003 2.005 2.003ZM90.51 18.957a2.004 2.004 0 0 0 2.006-2.002 2.004 2.004 0 0 0-2.005-2.003 2.004 2.004 0 1 0 0 4.005ZM80.302 5.157a2.004 2.004 0 1 0 0-4.005 2.004 2.004 0 1 0 0 4.005Z"/><path fill="#FFCB0C" d="M90.51 5.157a2.004 2.004 0 1 0 0-4.005 2.004 2.004 0 1 0 0 4.005Z"/><path fill="#231F20" d="M115.985 4.574a2.003 2.003 0 1 0 0-4.006 2.004 2.004 0 0 0-2.005 2.003c0 1.106.898 2.003 2.005 2.003ZM98.817 11.508a2.004 2.004 0 0 0 2.006-2.002 2.004 2.004 0 0 0-2.005-2.003 2.004 2.004 0 1 0 0 4.005ZM107.648 10.136a2.004 2.004 0 0 0 2.005-2.003 2.004 2.004 0 0 0-2.005-2.002 2.003 2.003 0 1 0 0 4.005ZM123.995 8.133a2.003 2.003 0 1 0 0-4.005 2.004 2.004 0 0 0-2.005 2.003c0 1.106.898 2.002 2.005 2.002ZM122.73 17.045a2.004 2.004 0 0 0 2.005-2.002 2.004 2.004 0 0 0-2.005-2.003 2.003 2.003 0 1 0 0 4.005Z"/><path fill="#FFCB0C" d="M121.704 22.1a2.003 2.003 0 1 0 0-4.005 2.004 2.004 0 0 0-2.005 2.003c0 1.106.898 2.002 2.005 2.002Z"/><path fill="#231F20" d="M114.665 38.363a2.004 2.004 0 0 0 2.005-2.002 2.004 2.004 0 0 0-2.005-2.003 2.004 2.004 0 0 0-2.005 2.003c0 1.106.898 2.002 2.005 2.002Z"/><path fill="#FFCB0C" d="M103.419 37.853a2.004 2.004 0 0 0 2.005-2.003 2.004 2.004 0 0 0-2.005-2.003 2.004 2.004 0 0 0-2.005 2.003c0 1.106.898 2.003 2.005 2.003Z"/><path fill="#A4CD39" d="M34.436 27.377c1.779 0 3.22-1.44 3.22-3.216a3.218 3.218 0 0 0-3.22-3.216 3.218 3.218 0 0 0-3.22 3.216 3.218 3.218 0 0 0 3.22 3.215Z"/><path fill="#231F20" d="M2.005 23.208a2.004 2.004 0 1 0 0-4.005 2.004 2.004 0 1 0 0 4.005ZM4.01 36.752a2.004 2.004 0 1 0 0-4.005 2.004 2.004 0 1 0 0 4.005Z"/><path fill="#A4CD39" d="M73.05 27.619c1.778 0 3.22-1.44 3.22-3.216a3.218 3.218 0 0 0-3.22-3.215 3.218 3.218 0 0 0-3.22 3.215 3.218 3.218 0 0 0 3.22 3.216Z"/></g><defs><clipPath id="a"><path fill="#fff" d="M0 0h126v40H0z"/></clipPath></defs></svg>